<svg xmlns="http://www.w3.org/2000/svg" width="41.44" height="37.296" viewBox="0 0 41.44 37.296">
  <path id="ic_domain_24px" d="M22.72,11.288V3H2V40.3H43.44V11.288ZM10.288,36.152H6.144V32.008h4.144Zm0-8.288H6.144V23.72h4.144Zm0-8.288H6.144V15.432h4.144Zm0-8.288H6.144V7.144h4.144Zm8.288,24.864H14.432V32.008h4.144Zm0-8.288H14.432V23.72h4.144Zm0-8.288H14.432V15.432h4.144Zm0-8.288H14.432V7.144h4.144ZM39.3,36.152H22.72V32.008h4.144V27.864H22.72V23.72h4.144V19.576H22.72V15.432H39.3ZM35.152,19.576H31.008V23.72h4.144Zm0,8.288H31.008v4.144h4.144Z" transform="translate(-2 -3)" fill="#f2f2f2"/>
</svg>
