<svg xmlns="http://www.w3.org/2000/svg" width="75.926" height="73.649" viewBox="0 0 75.926 73.649">
  <g id="Instagram" transform="translate(-8.25 -8.034)">
    <path id="Path_126" data-name="Path 126" d="M33.562,44.858A12.66,12.66,0,1,1,46.214,57.134,12.468,12.468,0,0,1,33.562,44.858Zm-6.841,0c0,10.444,8.727,18.909,19.494,18.909S65.709,55.3,65.709,44.858,56.981,25.949,46.214,25.949,26.72,34.415,26.72,44.858ZM61.925,25.2a4.325,4.325,0,0,0,.767,2.455,4.532,4.532,0,0,0,2.044,1.628,4.688,4.688,0,0,0,2.632.252A4.6,4.6,0,0,0,69.7,28.327a4.378,4.378,0,0,0,1.248-2.262,4.3,4.3,0,0,0-.258-2.553,4.454,4.454,0,0,0-1.677-1.984,4.66,4.66,0,0,0-2.531-.745h0a4.63,4.63,0,0,0-3.22,1.294A4.355,4.355,0,0,0,61.925,25.2ZM30.877,74.832a21.538,21.538,0,0,1-7.05-1.267,11.841,11.841,0,0,1-4.367-2.754,11.34,11.34,0,0,1-2.84-4.233,19.8,19.8,0,0,1-1.306-6.839c-.184-3.882-.221-5.047-.221-14.881s.04-11,.221-14.881a19.954,19.954,0,0,1,1.306-6.839A11.42,11.42,0,0,1,19.46,18.9a11.742,11.742,0,0,1,4.367-2.754,21.53,21.53,0,0,1,7.05-1.267c4-.179,5.2-.214,15.338-.214s11.337.039,15.342.214a21.69,21.69,0,0,1,7.05,1.267A11.811,11.811,0,0,1,72.974,18.9a11.382,11.382,0,0,1,2.839,4.236,19.8,19.8,0,0,1,1.306,6.839c.184,3.885.221,5.047.221,14.881s-.037,11-.221,14.881a19.9,19.9,0,0,1-1.306,6.839,11.383,11.383,0,0,1-2.839,4.233,11.843,11.843,0,0,1-4.367,2.754,21.519,21.519,0,0,1-7.05,1.267c-4,.179-5.2.214-15.342.214s-11.337-.035-15.338-.214ZM30.562,8.257a28.592,28.592,0,0,0-9.215,1.71,18.689,18.689,0,0,0-6.725,4.247,17.946,17.946,0,0,0-4.379,6.523A26.305,26.305,0,0,0,8.48,29.676c-.187,3.926-.23,5.182-.23,15.182s.043,11.256.23,15.182a26.3,26.3,0,0,0,1.763,8.939A17.956,17.956,0,0,0,14.622,75.5a18.741,18.741,0,0,0,6.725,4.248,28.631,28.631,0,0,0,9.215,1.71c4.05.178,5.342.223,15.652.223s11.6-.042,15.652-.223a28.611,28.611,0,0,0,9.215-1.71A18.74,18.74,0,0,0,77.806,75.5a17.99,17.99,0,0,0,4.379-6.523,26.221,26.221,0,0,0,1.763-8.939c.184-3.929.227-5.182.227-15.182s-.043-11.256-.227-15.182a26.288,26.288,0,0,0-1.763-8.939,18.056,18.056,0,0,0-4.379-6.523,18.645,18.645,0,0,0-6.722-4.247,28.554,28.554,0,0,0-9.215-1.71c-4.048-.179-5.342-.223-15.652-.223S34.613,8.075,30.562,8.257Z" transform="translate(0 0)" fill="#a3e7fc"/>
    <path id="Path_127" data-name="Path 127" d="M33.562,44.858A12.66,12.66,0,1,1,46.214,57.134,12.468,12.468,0,0,1,33.562,44.858Zm-6.841,0c0,10.444,8.727,18.909,19.494,18.909S65.709,55.3,65.709,44.858,56.981,25.949,46.214,25.949,26.72,34.415,26.72,44.858ZM61.925,25.2a4.325,4.325,0,0,0,.767,2.455,4.532,4.532,0,0,0,2.044,1.628,4.688,4.688,0,0,0,2.632.252A4.6,4.6,0,0,0,69.7,28.327a4.378,4.378,0,0,0,1.248-2.262,4.3,4.3,0,0,0-.258-2.553,4.454,4.454,0,0,0-1.677-1.984,4.66,4.66,0,0,0-2.531-.745h0a4.63,4.63,0,0,0-3.22,1.294A4.355,4.355,0,0,0,61.925,25.2ZM30.877,74.832a21.538,21.538,0,0,1-7.05-1.267,11.841,11.841,0,0,1-4.367-2.754,11.34,11.34,0,0,1-2.84-4.233,19.8,19.8,0,0,1-1.306-6.839c-.184-3.882-.221-5.047-.221-14.881s.04-11,.221-14.881a19.954,19.954,0,0,1,1.306-6.839A11.42,11.42,0,0,1,19.46,18.9a11.742,11.742,0,0,1,4.367-2.754,21.53,21.53,0,0,1,7.05-1.267c4-.179,5.2-.214,15.338-.214s11.337.039,15.342.214a21.69,21.69,0,0,1,7.05,1.267A11.811,11.811,0,0,1,72.974,18.9a11.382,11.382,0,0,1,2.839,4.236,19.8,19.8,0,0,1,1.306,6.839c.184,3.885.221,5.047.221,14.881s-.037,11-.221,14.881a19.9,19.9,0,0,1-1.306,6.839,11.383,11.383,0,0,1-2.839,4.233,11.843,11.843,0,0,1-4.367,2.754,21.519,21.519,0,0,1-7.05,1.267c-4,.179-5.2.214-15.342.214s-11.337-.035-15.338-.214ZM30.562,8.257a28.592,28.592,0,0,0-9.215,1.71,18.689,18.689,0,0,0-6.725,4.247,17.946,17.946,0,0,0-4.379,6.523A26.305,26.305,0,0,0,8.48,29.676c-.187,3.926-.23,5.182-.23,15.182s.043,11.256.23,15.182a26.3,26.3,0,0,0,1.763,8.939A17.956,17.956,0,0,0,14.622,75.5a18.741,18.741,0,0,0,6.725,4.248,28.631,28.631,0,0,0,9.215,1.71c4.05.178,5.342.223,15.652.223s11.6-.042,15.652-.223a28.611,28.611,0,0,0,9.215-1.71A18.74,18.74,0,0,0,77.806,75.5a17.99,17.99,0,0,0,4.379-6.523,26.221,26.221,0,0,0,1.763-8.939c.184-3.929.227-5.182.227-15.182s-.043-11.256-.227-15.182a26.288,26.288,0,0,0-1.763-8.939,18.056,18.056,0,0,0-4.379-6.523,18.645,18.645,0,0,0-6.722-4.247,28.554,28.554,0,0,0-9.215-1.71c-4.048-.179-5.342-.223-15.652-.223S34.613,8.075,30.562,8.257Z" transform="translate(0 0)" fill="#a3e7fc"/>
  </g>
</svg>
