<svg xmlns="http://www.w3.org/2000/svg" width="63.834" height="73.651" viewBox="0 0 63.834 73.651">
  <path id="Tik_Tok" data-name="Tik Tok" d="M64.119,23.036a16.681,16.681,0,0,1-1.45-.844,20.4,20.4,0,0,1-3.724-3.164,17.568,17.568,0,0,1-4.2-8.658h.015A10.7,10.7,0,0,1,54.6,7.285H41.949V56.2c0,.657,0,1.306-.028,1.947,0,.08-.008.153-.012.24a.526.526,0,0,1-.008.109v.027a10.739,10.739,0,0,1-5.4,8.524,10.561,10.561,0,0,1-5.234,1.381,10.74,10.74,0,0,1,0-21.48,10.572,10.572,0,0,1,3.285.52l.015-12.879a23.495,23.495,0,0,0-18.1,5.3,24.828,24.828,0,0,0-5.416,6.679A23.147,23.147,0,0,0,8.25,57.184a25.073,25.073,0,0,0,1.358,8.4v.03a24.724,24.724,0,0,0,3.434,6.263,25.7,25.7,0,0,0,5.479,5.169v-.03l.031.03a23.668,23.668,0,0,0,12.912,3.888,22.858,22.858,0,0,0,9.584-2.119,24.054,24.054,0,0,0,7.782-5.849,24.315,24.315,0,0,0,4.241-7.047,26.4,26.4,0,0,0,1.526-8.06V31.909c.153.092,2.2,1.444,2.2,1.444a29.241,29.241,0,0,0,7.538,3.116,43.386,43.386,0,0,0,7.736,1.059V24.971A16.4,16.4,0,0,1,64.119,23.036Z" transform="translate(-8.235 -7.285)" fill="#a3e7fc"/>
</svg>
