<svg xmlns="http://www.w3.org/2000/svg" width="37.5" height="37.506" viewBox="0 0 37.5 37.506">
  <path id="ic_beach_access_24px" d="M24.1,27.087l2.98-2.98L40.5,37.534l-2.974,2.974Zm8.946-11.94,5.96-5.96a21.085,21.085,0,0,0-29.8-.042A23.271,23.271,0,0,1,33.047,15.147ZM9.146,9.208a21.085,21.085,0,0,0,.042,29.8l5.96-5.96A23.271,23.271,0,0,1,9.146,9.208Zm.042-.042-.021.021c-.792,6.272,2.438,14.337,8.96,20.88l11.94-11.94C23.545,11.6,15.46,8.375,9.188,9.167Z" transform="translate(-3.001 -3.001)" fill="#f2f2f2"/>
</svg>
