<svg xmlns="http://www.w3.org/2000/svg" width="85.366" height="64.562" viewBox="0 0 85.366 64.562">
  <path id="Twitter" d="M93.986,17.756a37.449,37.449,0,0,1-8.637,2.259c1.39-.219,3.435-2.514,4.249-3.443a14.251,14.251,0,0,0,2.78-4.718c0-.127.139-.309,0-.4a.515.515,0,0,0-.457,0A46.149,46.149,0,0,1,81.7,15.1a.778.778,0,0,1-.382.009.734.734,0,0,1-.333-.173,9.5,9.5,0,0,0-.893-.856,18.9,18.9,0,0,0-4.885-2.9,18.571,18.571,0,0,0-7.6-1.147,19.7,19.7,0,0,0-7.228,1.822A18.412,18.412,0,0,0,54.651,16.3a16.344,16.344,0,0,0-3.475,6.376A16.1,16.1,0,0,0,51,29.415c0,.382,0,.437-.357.382-14.157-1.913-25.773-6.522-35.264-16.414-.417-.437-.636-.437-.973,0-4.13,5.757-2.125,14.866,3.038,19.365.695.6,1.41,1.184,2.164,1.73a18.96,18.96,0,0,1-6.791-1.73c-.4-.237-.616-.109-.635.328a9.851,9.851,0,0,0,0,1.822A15.848,15.848,0,0,0,15.8,42.873a17.962,17.962,0,0,0,7.5,5.215,12.027,12.027,0,0,0,2.244.638,22.115,22.115,0,0,1-6.651.182c-.477-.091-.655.145-.477.564,2.919,7.287,9.253,9.51,13.9,10.748.636.091,1.271.091,1.986.237l-.119.109c-1.37,2.3-6.91,3.844-9.451,4.646a36.815,36.815,0,0,1-14.5,1.712c-.774-.109-.953-.091-1.152,0s0,.292.218.474c.993.6,1.986,1.129,3.018,1.639a50,50,0,0,0,9.69,3.643c17.434,4.409,37.051,1.166,50.137-10.767,10.285-9.364,13.9-22.28,13.9-35.214,0-.492.655-.784,1.033-1.039a32.643,32.643,0,0,0,6.81-6.522,1.812,1.812,0,0,0,.477-1.311C94.363,17.555,94.363,17.61,93.986,17.756Z" transform="translate(-9 -10)" fill="#a3e7fc"/>
</svg>
